<svg version="1.1" id="Layer_1" xmlns="http://www.w3.org/2000/svg" xmlns:xlink="http://www.w3.org/1999/xlink" x="0px" y="0px"
	 width="100%" viewBox="0 0 1440 1440" enable-background="new 0 0 1440 1440" xml:space="preserve">

<path fill="#83B0F2" opacity="1.000000" stroke="none" 
	d="
M814.000000,333.000000 
	C948.494324,332.999939 1082.488892,332.890228 1216.482666,333.145844 
	C1232.313110,333.176025 1247.567383,337.549103 1262.271118,343.626343 
	C1273.444580,348.244537 1283.632935,354.364746 1293.290771,361.611267 
	C1306.982788,371.884918 1317.907837,384.561951 1326.962524,398.933289 
	C1335.871582,413.073273 1341.371216,428.645508 1344.812866,444.874420 
	C1346.299438,451.884613 1346.908325,459.206207 1346.913208,466.386993 
	C1347.025391,634.379761 1346.961792,802.372620 1347.036377,970.365479 
	C1347.049438,999.607727 1338.962891,1026.295654 1322.232300,1050.152344 
	C1301.521606,1079.684204 1273.272461,1098.345337 1237.989868,1105.865112 
	C1229.084106,1107.763306 1219.824707,1108.869873 1210.727173,1108.874023 
	C885.241028,1109.024292 559.754883,1108.980957 234.268784,1109.031982 
	C204.728073,1109.036621 177.716934,1101.054810 153.609711,1084.023071 
	C123.984215,1063.092896 105.187523,1034.793823 98.087532,999.137878 
	C96.274887,990.034973 95.135918,980.629089 95.126251,971.360901 
	C94.952400,804.701538 95.026726,638.041931 94.974319,471.382355 
	C94.965126,442.149933 103.183731,415.530670 119.919083,391.650177 
	C140.553070,362.206512 168.755539,343.812134 203.765350,336.145935 
	C212.655441,334.199188 221.927795,333.135437 231.025757,333.127563 
	C425.183746,332.959473 619.341858,333.000031 814.000000,333.000000 
M124.991180,990.548035 
	C125.328850,992.465149 125.558296,994.408813 126.020515,996.295410 
	C132.519608,1022.822205 146.640579,1044.334351 168.848587,1060.273804 
	C188.935486,1074.690918 211.513580,1081.063232 236.237000,1081.056641 
	C559.373108,1080.970825 882.509277,1081.013550 1205.645386,1080.916504 
	C1213.322266,1080.914185 1221.101074,1080.246826 1228.657715,1078.905762 
	C1257.573730,1073.773560 1280.788208,1059.194824 1298.038086,1035.408813 
	C1312.454102,1015.530640 1319.043335,993.163940 1319.033813,968.631958 
	C1318.969238,801.481079 1319.007935,634.330200 1318.955933,467.179352 
	C1318.954590,462.754517 1318.730591,458.245270 1317.880371,453.918854 
	C1312.528931,426.688049 1300.289062,403.453552 1278.326294,385.754669 
	C1258.754272,369.982330 1236.439819,361.140869 1211.454956,361.126221 
	C886.985840,360.936005 562.516479,360.985474 238.047180,361.084045 
	C229.703537,361.086578 221.232925,361.630646 213.039948,363.122040 
	C184.557861,368.306732 161.598465,382.635162 144.406845,406.067108 
	C129.414505,426.501526 122.926392,449.446747 122.943039,474.675568 
	C123.053139,641.493042 122.983727,808.310669 123.080780,975.128174 
	C123.083603,979.974060 124.284531,984.819336 124.991180,990.548035 
z"/>
<path fill="#000000" opacity="1.000000" stroke="none" 
	d="
M124.959007,990.106445 
	C124.284531,984.819336 123.083603,979.974060 123.080780,975.128174 
	C122.983727,808.310669 123.053139,641.493042 122.943039,474.675568 
	C122.926392,449.446747 129.414505,426.501526 144.406845,406.067108 
	C161.598465,382.635162 184.557861,368.306732 213.039948,363.122040 
	C221.232925,361.630646 229.703537,361.086578 238.047180,361.084045 
	C562.516479,360.985474 886.985840,360.936005 1211.454956,361.126221 
	C1236.439819,361.140869 1258.754272,369.982330 1278.326294,385.754669 
	C1300.289062,403.453552 1312.528931,426.688049 1317.880371,453.918854 
	C1318.730591,458.245270 1318.954590,462.754517 1318.955933,467.179352 
	C1319.007935,634.330200 1318.969238,801.481079 1319.033813,968.631958 
	C1319.043335,993.163940 1312.454102,1015.530640 1298.038086,1035.408813 
	C1280.788208,1059.194824 1257.573730,1073.773560 1228.657715,1078.905762 
	C1221.101074,1080.246826 1213.322266,1080.914185 1205.645386,1080.916504 
	C882.509277,1081.013550 559.373108,1080.970825 236.237000,1081.056641 
	C211.513580,1081.063232 188.935486,1074.690918 168.848587,1060.273804 
	C146.640579,1044.334351 132.519608,1022.822205 126.020515,996.295410 
	C125.558296,994.408813 125.328850,992.465149 124.959007,990.106445 
M168.052689,923.755432 
	C167.939011,924.397339 167.919571,925.073853 167.698090,925.676086 
	C159.110596,949.028381 155.389801,973.231995 154.998886,998.022034 
	C154.854111,1007.203247 161.575470,1012.892273 169.779816,1012.900696 
	C304.915131,1013.038879 440.050598,1013.003418 575.186035,1012.986084 
	C582.317322,1012.985168 588.226196,1008.836060 589.916687,1001.784180 
	C590.783569,998.167664 590.326904,994.131348 589.945190,990.337341 
	C588.767334,978.631714 587.891052,966.855896 585.893860,955.280579 
	C581.347290,928.928772 570.983643,904.802246 556.772278,882.204163 
	C544.842529,863.234070 529.933105,846.981262 512.978210,832.471619 
	C495.313782,817.354797 475.874084,805.165771 454.173523,796.719360 
	C453.106812,796.304077 451.398102,796.654907 450.335541,797.259277 
	C444.428833,800.619568 438.916443,804.827637 432.735138,807.519226 
	C418.790527,813.591248 404.688873,818.982117 389.128357,820.240784 
	C374.062805,821.459473 359.109863,821.697266 344.404846,818.575256 
	C327.354980,814.955444 311.416809,808.174744 297.165283,797.943054 
	C294.544434,796.061462 292.212250,795.994324 289.614868,797.136047 
	C285.614319,798.894653 281.636139,800.722168 277.746368,802.711731 
	C261.775909,810.880554 246.505142,820.059875 233.153046,832.254028 
	C219.136215,845.055359 205.441071,858.009460 194.499237,873.757935 
	C183.779007,889.187378 175.470322,905.747009 168.052689,923.755432 
M986.500000,665.000000 
	C880.035645,665.000000 773.571106,665.102539 667.107178,664.883301 
	C652.084900,664.852356 636.847473,679.503967 636.052917,695.037170 
	C635.032776,714.980774 649.937988,730.986023 670.542542,730.988281 
	C856.313721,731.008423 1042.084961,731.010010 1227.856079,730.925110 
	C1231.354492,730.923462 1234.894653,729.977783 1238.343140,729.165588 
	C1253.570190,725.578918 1264.228027,707.402466 1261.354126,691.311218 
	C1259.198364,679.240845 1243.587036,664.692566 1229.917480,664.771118 
	C1149.113892,665.235413 1068.306274,665.000000 986.500000,665.000000 
M394.551636,793.008545 
	C421.487854,787.428101 443.290009,773.724243 460.023346,751.862854 
	C472.799805,735.170959 479.734680,716.079590 481.716400,695.465088 
	C482.631714,685.943787 481.223938,676.068787 479.899200,666.488403 
	C476.759094,643.779114 465.653748,624.756470 449.901520,608.727112 
	C440.369751,599.027710 428.993744,591.358765 416.190887,585.944641 
	C393.110077,576.184143 369.379211,574.129395 345.341583,580.484131 
	C322.811859,586.440186 303.673279,598.303955 288.723297,616.666016 
	C274.685974,633.907166 266.121246,653.462341 264.162506,675.445068 
	C262.072235,698.903809 266.657166,721.185974 278.903107,741.719299 
	C289.937775,760.221619 305.077972,774.238525 324.124115,783.940796 
	C342.798096,793.453491 362.881683,796.358643 383.642517,794.939270 
	C387.012817,794.708801 390.330872,793.713623 394.551636,793.008545 
M640.392944,888.117493 
	C639.946411,888.987122 639.524963,889.870728 639.049561,890.724365 
	C630.155640,906.692383 642.341492,925.181702 660.219604,925.144531 
	C789.694519,924.875244 919.170166,924.983948 1048.645630,925.034546 
	C1057.673828,925.038025 1063.986938,920.567383 1068.166260,913.238159 
	C1077.419922,897.010193 1064.692871,878.923950 1047.818359,878.938599 
	C919.009460,879.050354 790.200500,879.031494 661.391602,878.926331 
	C653.125488,878.919556 646.410339,881.541016 640.392944,888.117493 
M795.500000,782.000000 
	C749.670288,782.000061 703.840576,781.991943 658.010864,782.031616 
	C656.252808,782.033142 654.476196,782.403503 652.740295,782.758972 
	C641.280334,785.105652 634.743408,798.384399 636.110901,807.336487 
	C638.027344,819.882019 647.049988,827.963501 659.872498,827.968506 
	C789.362061,828.019104 918.851624,828.004761 1048.341187,827.956909 
	C1050.579102,827.956116 1052.974731,827.713135 1055.029053,826.903748 
	C1068.062134,821.768921 1072.530029,812.370300 1070.805908,800.268616 
	C1069.429199,790.606445 1058.799438,781.777466 1047.479004,781.821960 
	C963.820435,782.151001 880.159912,782.000000 795.500000,782.000000 
M796.499817,471.000000 
	C785.067932,471.000000 773.636047,471.000000 762.350952,471.000000 
	C762.350952,467.294617 762.350952,464.229736 762.350952,460.711304 
	C785.431335,460.711304 808.163391,460.711304 830.766113,460.711304 
	C830.766113,452.626251 830.766113,445.013000 830.766113,437.262695 
	C797.803589,437.262695 765.075134,437.262695 732.291870,437.262695 
	C732.291870,466.921783 732.291870,496.317230 732.291870,525.678894 
	C765.313843,525.678894 798.042786,525.678894 830.647949,525.678894 
	C830.647949,517.621216 830.647949,509.888794 830.647949,501.708160 
	C807.563843,501.708160 784.829590,501.708160 762.227173,501.708160 
	C762.227173,498.628357 762.227173,496.011688 762.227173,492.944550 
	C780.516968,492.944550 798.586853,492.944550 816.708191,492.944550 
	C816.708191,485.412292 816.708191,478.348419 816.708191,471.000000 
	C810.113464,471.000000 803.806519,471.000000 796.499817,471.000000 
M852.000000,439.624115 
	C852.000000,468.354614 852.000000,497.085083 852.000000,525.634766 
	C862.081726,525.634766 871.476379,525.634766 881.125366,525.634766 
	C881.125366,511.367401 881.125366,497.463715 881.125366,482.724091 
	C908.221497,499.381165 934.752502,515.690857 961.708984,532.262085 
	C961.708984,500.258087 961.708984,468.774750 961.708984,437.313965 
	C951.689209,437.313965 941.963806,437.313965 931.982056,437.313965 
	C931.982056,451.545807 931.982056,465.465942 931.982056,480.047699 
	C905.142822,463.544037 878.786743,447.337494 852.000000,430.866119 
	C852.000000,434.013611 852.000000,436.343475 852.000000,439.624115 
M1156.540771,506.956299 
	C1154.258545,509.669617 1151.976196,512.382935 1149.401733,515.443665 
	C1157.091064,521.128540 1164.342163,526.489502 1171.679199,531.913879 
	C1175.484863,527.016602 1179.501587,522.642517 1182.526611,517.665710 
	C1184.429688,514.534973 1186.530518,513.937622 1189.730225,513.954407 
	C1207.710815,514.048950 1225.692993,514.092285 1243.672363,513.915161 
	C1246.919067,513.883179 1249.110352,514.713074 1250.960815,517.369080 
	C1254.362549,522.251404 1258.000977,526.968933 1261.686035,531.951660 
	C1269.111084,526.517273 1276.435059,521.156677 1284.010498,515.612061 
	C1261.682007,486.952881 1239.442261,458.407684 1216.375610,428.801147 
	C1215.250854,430.474487 1214.484253,431.765320 1213.574707,432.946045 
	C1203.450562,446.087921 1193.300293,459.209625 1183.165283,472.343048 
	C1174.420776,483.674622 1165.687012,495.014343 1156.540771,506.956299 
M695.212830,436.054352 
	C685.710815,435.369568 676.214966,434.230957 666.705322,434.100555 
	C650.160156,433.873596 635.076172,438.445251 621.683777,448.640900 
	C601.802673,463.776520 598.878418,491.409607 616.548950,509.907074 
	C627.032715,520.881409 640.561157,526.183411 655.501343,528.013916 
	C676.503296,530.587280 696.963257,529.723267 715.909424,518.381836 
	C712.306274,512.067078 708.580872,505.790497 705.136475,499.363312 
	C703.949097,497.147614 703.026245,496.534821 700.565247,497.684235 
	C697.082764,499.310638 693.412354,500.674103 689.687439,501.617920 
	C674.524597,505.460114 659.769897,505.312744 645.654053,497.289917 
	C634.781372,491.110382 632.447266,478.015259 641.310181,469.276276 
	C648.641296,462.047729 658.149414,459.720642 668.019348,459.065918 
	C679.440063,458.308350 690.354370,460.725861 700.865112,465.264984 
	C701.866882,465.697632 704.317139,464.795776 704.921509,463.800720 
	C708.762390,457.476929 712.273438,450.952789 716.252136,443.854370 
	C709.261475,441.306366 702.612427,438.882874 695.212830,436.054352 
M1050.000000,476.503601 
	C1050.000000,471.410492 1050.000000,466.317352 1050.000000,460.776855 
	C1064.362793,460.776855 1078.093872,460.776855 1091.631348,460.776855 
	C1091.631348,452.581451 1091.631348,444.850800 1091.631348,437.379700 
	C1053.545288,437.379700 1015.828491,437.379700 978.231140,437.379700 
	C978.231140,445.371643 978.231140,452.982239 978.231140,461.047241 
	C992.183838,461.047241 1005.914429,461.047241 1020.090820,461.047241 
	C1020.090820,482.896118 1020.090820,504.288788 1020.090820,525.700745 
	C1030.276611,525.700745 1040.003540,525.700745 1050.000000,525.700745 
	C1050.000000,509.435974 1050.000000,493.468994 1050.000000,476.503601 
M515.500000,502.000122 
	C502.406830,502.000122 489.313660,502.000122 475.764984,502.000122 
	C475.764984,479.961426 475.764984,458.561890 475.764984,437.380890 
	C465.895752,437.380890 456.495667,437.380890 447.232788,437.380890 
	C447.232788,467.039551 447.232788,496.316833 447.232788,525.738770 
	C479.193970,525.738770 510.921875,525.738770 542.708130,525.738770 
	C542.708130,517.744751 542.708130,510.014771 542.708130,502.000122 
	C533.779114,502.000122 525.139587,502.000122 515.500000,502.000122 
M1123.498291,437.000000 
	C1118.409180,437.000000 1113.320068,437.000000 1108.299561,437.000000 
	C1108.299561,466.996399 1108.299561,496.362549 1108.299561,525.684692 
	C1118.323242,525.684692 1128.044312,525.684692 1137.699707,525.684692 
	C1137.699707,496.002319 1137.699707,466.636169 1137.699707,437.000000 
	C1133.099121,437.000000 1128.796265,437.000000 1123.498291,437.000000 
M558.000000,503.499969 
	C558.000000,510.920898 558.000000,518.341858 558.000000,525.673950 
	C568.344910,525.673950 578.066040,525.673950 587.689697,525.673950 
	C587.689697,495.981445 587.689697,466.615906 587.689697,437.325684 
	C577.655090,437.325684 567.934021,437.325684 558.000000,437.325684 
	C558.000000,459.267120 558.000000,480.883545 558.000000,503.499969 
z"/>
<path fill="#83B0F2" opacity="1.000000" stroke="none" 
	d="
M168.246735,923.404541 
	C175.470322,905.747009 183.779007,889.187378 194.499237,873.757935 
	C205.441071,858.009460 219.136215,845.055359 233.153046,832.254028 
	C246.505142,820.059875 261.775909,810.880554 277.746368,802.711731 
	C281.636139,800.722168 285.614319,798.894653 289.614868,797.136047 
	C292.212250,795.994324 294.544434,796.061462 297.165283,797.943054 
	C311.416809,808.174744 327.354980,814.955444 344.404846,818.575256 
	C359.109863,821.697266 374.062805,821.459473 389.128357,820.240784 
	C404.688873,818.982117 418.790527,813.591248 432.735138,807.519226 
	C438.916443,804.827637 444.428833,800.619568 450.335541,797.259277 
	C451.398102,796.654907 453.106812,796.304077 454.173523,796.719360 
	C475.874084,805.165771 495.313782,817.354797 512.978210,832.471619 
	C529.933105,846.981262 544.842529,863.234070 556.772278,882.204163 
	C570.983643,904.802246 581.347290,928.928772 585.893860,955.280579 
	C587.891052,966.855896 588.767334,978.631714 589.945190,990.337341 
	C590.326904,994.131348 590.783569,998.167664 589.916687,1001.784180 
	C588.226196,1008.836060 582.317322,1012.985168 575.186035,1012.986084 
	C440.050598,1013.003418 304.915131,1013.038879 169.779816,1012.900696 
	C161.575470,1012.892273 154.854111,1007.203247 154.998886,998.022034 
	C155.389801,973.231995 159.110596,949.028381 167.698090,925.676086 
	C167.919571,925.073853 167.939011,924.397339 168.246735,923.404541 
z"/>
<path fill="#C6C6C6" opacity="1.000000" stroke="none" 
	d="
M987.000000,665.000000 
	C1068.306274,665.000000 1149.113892,665.235413 1229.917480,664.771118 
	C1243.587036,664.692566 1259.198364,679.240845 1261.354126,691.311218 
	C1264.228027,707.402466 1253.570190,725.578918 1238.343140,729.165588 
	C1234.894653,729.977783 1231.354492,730.923462 1227.856079,730.925110 
	C1042.084961,731.010010 856.313721,731.008423 670.542542,730.988281 
	C649.937988,730.986023 635.032776,714.980774 636.052917,695.037170 
	C636.847473,679.503967 652.084900,664.852356 667.107178,664.883301 
	C773.571106,665.102539 880.035645,665.000000 987.000000,665.000000 
z"/>
<path fill="#83B0F2" opacity="1.000000" stroke="none" 
	d="
M394.112366,793.040283 
	C390.330872,793.713623 387.012817,794.708801 383.642517,794.939270 
	C362.881683,796.358643 342.798096,793.453491 324.124115,783.940796 
	C305.077972,774.238525 289.937775,760.221619 278.903107,741.719299 
	C266.657166,721.185974 262.072235,698.903809 264.162506,675.445068 
	C266.121246,653.462341 274.685974,633.907166 288.723297,616.666016 
	C303.673279,598.303955 322.811859,586.440186 345.341583,580.484131 
	C369.379211,574.129395 393.110077,576.184143 416.190887,585.944641 
	C428.993744,591.358765 440.369751,599.027710 449.901520,608.727112 
	C465.653748,624.756470 476.759094,643.779114 479.899200,666.488403 
	C481.223938,676.068787 482.631714,685.943787 481.716400,695.465088 
	C479.734680,716.079590 472.799805,735.170959 460.023346,751.862854 
	C443.290009,773.724243 421.487854,787.428101 394.112366,793.040283 
z"/>
<path fill="#C6C6C6" opacity="1.000000" stroke="none" 
	d="
M640.663574,887.859863 
	C646.410339,881.541016 653.125488,878.919556 661.391602,878.926331 
	C790.200500,879.031494 919.009460,879.050354 1047.818359,878.938599 
	C1064.692871,878.923950 1077.419922,897.010193 1068.166260,913.238159 
	C1063.986938,920.567383 1057.673828,925.038025 1048.645630,925.034546 
	C919.170166,924.983948 789.694519,924.875244 660.219604,925.144531 
	C642.341492,925.181702 630.155640,906.692383 639.049561,890.724365 
	C639.524963,889.870728 639.946411,888.987122 640.663574,887.859863 
z"/>
<path fill="#C6C6C6" opacity="1.000000" stroke="none" 
	d="
M796.000000,782.000000 
	C880.159912,782.000000 963.820435,782.151001 1047.479004,781.821960 
	C1058.799438,781.777466 1069.429199,790.606445 1070.805908,800.268616 
	C1072.530029,812.370300 1068.062134,821.768921 1055.029053,826.903748 
	C1052.974731,827.713135 1050.579102,827.956116 1048.341187,827.956909 
	C918.851624,828.004761 789.362061,828.019104 659.872498,827.968506 
	C647.049988,827.963501 638.027344,819.882019 636.110901,807.336487 
	C634.743408,798.384399 641.280334,785.105652 652.740295,782.758972 
	C654.476196,782.403503 656.252808,782.033142 658.010864,782.031616 
	C703.840576,781.991943 749.670288,782.000061 796.000000,782.000000 
z"/>
<path fill="#83B0F2" opacity="1.000000" stroke="none" 
	d="
M796.999695,471.000000 
	C803.806519,471.000000 810.113464,471.000000 816.708191,471.000000 
	C816.708191,478.348419 816.708191,485.412292 816.708191,492.944550 
	C798.586853,492.944550 780.516968,492.944550 762.227173,492.944550 
	C762.227173,496.011688 762.227173,498.628357 762.227173,501.708160 
	C784.829590,501.708160 807.563843,501.708160 830.647949,501.708160 
	C830.647949,509.888794 830.647949,517.621216 830.647949,525.678894 
	C798.042786,525.678894 765.313843,525.678894 732.291870,525.678894 
	C732.291870,496.317230 732.291870,466.921783 732.291870,437.262695 
	C765.075134,437.262695 797.803589,437.262695 830.766113,437.262695 
	C830.766113,445.013000 830.766113,452.626251 830.766113,460.711304 
	C808.163391,460.711304 785.431335,460.711304 762.350952,460.711304 
	C762.350952,464.229736 762.350952,467.294617 762.350952,471.000000 
	C773.636047,471.000000 785.067932,471.000000 796.999695,471.000000 
z"/>
<path fill="#83B0F2" opacity="1.000000" stroke="none" 
	d="
M852.000000,439.148743 
	C852.000000,436.343475 852.000000,434.013611 852.000000,430.866119 
	C878.786743,447.337494 905.142822,463.544037 931.982056,480.047699 
	C931.982056,465.465942 931.982056,451.545807 931.982056,437.313965 
	C941.963806,437.313965 951.689209,437.313965 961.708984,437.313965 
	C961.708984,468.774750 961.708984,500.258087 961.708984,532.262085 
	C934.752502,515.690857 908.221497,499.381165 881.125366,482.724091 
	C881.125366,497.463715 881.125366,511.367401 881.125366,525.634766 
	C871.476379,525.634766 862.081726,525.634766 852.000000,525.634766 
	C852.000000,497.085083 852.000000,468.354614 852.000000,439.148743 
z"/>
<path fill="#83B0F2" opacity="1.000000" stroke="none" 
	d="
M1156.744629,506.653381 
	C1165.687012,495.014343 1174.420776,483.674622 1183.165283,472.343048 
	C1193.300293,459.209625 1203.450562,446.087921 1213.574707,432.946045 
	C1214.484253,431.765320 1215.250854,430.474487 1216.375610,428.801147 
	C1239.442261,458.407684 1261.682007,486.952881 1284.010498,515.612061 
	C1276.435059,521.156677 1269.111084,526.517273 1261.686035,531.951660 
	C1258.000977,526.968933 1254.362549,522.251404 1250.960815,517.369080 
	C1249.110352,514.713074 1246.919067,513.883179 1243.672363,513.915161 
	C1225.692993,514.092285 1207.710815,514.048950 1189.730225,513.954407 
	C1186.530518,513.937622 1184.429688,514.534973 1182.526611,517.665710 
	C1179.501587,522.642517 1175.484863,527.016602 1171.679199,531.913879 
	C1164.342163,526.489502 1157.091064,521.128540 1149.401733,515.443665 
	C1151.976196,512.382935 1154.258545,509.669617 1156.744629,506.653381 
M1228.656128,488.116638 
	C1224.782349,483.024597 1220.908691,477.932556 1216.708130,472.410858 
	C1212.005249,478.716858 1207.614624,484.604065 1202.844971,490.999695 
	C1211.476562,490.999695 1219.268188,491.035767 1227.058594,490.962280 
	C1228.281860,490.950745 1231.042114,491.868317 1228.656128,488.116638 
z"/>
<path fill="#83B0F2" opacity="1.000000" stroke="none" 
	d="
M695.588074,436.256866 
	C702.612427,438.882874 709.261475,441.306366 716.252136,443.854370 
	C712.273438,450.952789 708.762390,457.476929 704.921509,463.800720 
	C704.317139,464.795776 701.866882,465.697632 700.865112,465.264984 
	C690.354370,460.725861 679.440063,458.308350 668.019348,459.065918 
	C658.149414,459.720642 648.641296,462.047729 641.310181,469.276276 
	C632.447266,478.015259 634.781372,491.110382 645.654053,497.289917 
	C659.769897,505.312744 674.524597,505.460114 689.687439,501.617920 
	C693.412354,500.674103 697.082764,499.310638 700.565247,497.684235 
	C703.026245,496.534821 703.949097,497.147614 705.136475,499.363312 
	C708.580872,505.790497 712.306274,512.067078 715.909424,518.381836 
	C696.963257,529.723267 676.503296,530.587280 655.501343,528.013916 
	C640.561157,526.183411 627.032715,520.881409 616.548950,509.907074 
	C598.878418,491.409607 601.802673,463.776520 621.683777,448.640900 
	C635.076172,438.445251 650.160156,433.873596 666.705322,434.100555 
	C676.214966,434.230957 685.710815,435.369568 695.588074,436.256866 
z"/>
<path fill="#83B0F2" opacity="1.000000" stroke="none" 
	d="
M1050.000000,477.002808 
	C1050.000000,493.468994 1050.000000,509.435974 1050.000000,525.700745 
	C1040.003540,525.700745 1030.276611,525.700745 1020.090820,525.700745 
	C1020.090820,504.288788 1020.090820,482.896118 1020.090820,461.047241 
	C1005.914429,461.047241 992.183838,461.047241 978.231140,461.047241 
	C978.231140,452.982239 978.231140,445.371643 978.231140,437.379700 
	C1015.828491,437.379700 1053.545288,437.379700 1091.631348,437.379700 
	C1091.631348,444.850800 1091.631348,452.581451 1091.631348,460.776855 
	C1078.093872,460.776855 1064.362793,460.776855 1050.000000,460.776855 
	C1050.000000,466.317352 1050.000000,471.410492 1050.000000,477.002808 
z"/>
<path fill="#83B0F2" opacity="1.000000" stroke="none" 
	d="
M516.000000,502.000122 
	C525.139587,502.000122 533.779114,502.000122 542.708130,502.000122 
	C542.708130,510.014771 542.708130,517.744751 542.708130,525.738770 
	C510.921875,525.738770 479.193970,525.738770 447.232788,525.738770 
	C447.232788,496.316833 447.232788,467.039551 447.232788,437.380890 
	C456.495667,437.380890 465.895752,437.380890 475.764984,437.380890 
	C475.764984,458.561890 475.764984,479.961426 475.764984,502.000122 
	C489.313660,502.000122 502.406830,502.000122 516.000000,502.000122 
z"/>
<path fill="#83B0F2" opacity="1.000000" stroke="none" 
	d="
M1123.995850,437.000000 
	C1128.796265,437.000000 1133.099121,437.000000 1137.699707,437.000000 
	C1137.699707,466.636169 1137.699707,496.002319 1137.699707,525.684692 
	C1128.044312,525.684692 1118.323242,525.684692 1108.299561,525.684692 
	C1108.299561,496.362549 1108.299561,466.996399 1108.299561,437.000000 
	C1113.320068,437.000000 1118.409180,437.000000 1123.995850,437.000000 
z"/>
<path fill="#83B0F2" opacity="1.000000" stroke="none" 
	d="
M558.000000,503.000000 
	C558.000000,480.883545 558.000000,459.267120 558.000000,437.325684 
	C567.934021,437.325684 577.655090,437.325684 587.689697,437.325684 
	C587.689697,466.615906 587.689697,495.981445 587.689697,525.673950 
	C578.066040,525.673950 568.344910,525.673950 558.000000,525.673950 
	C558.000000,518.341858 558.000000,510.920898 558.000000,503.000000 
z"/>
<path fill="#000000" opacity="1.000000" stroke="none" 
	d="
M1228.910400,488.420044 
	C1231.042114,491.868317 1228.281860,490.950745 1227.058594,490.962280 
	C1219.268188,491.035767 1211.476562,490.999695 1202.844971,490.999695 
	C1207.614624,484.604065 1212.005249,478.716858 1216.708130,472.410858 
	C1220.908691,477.932556 1224.782349,483.024597 1228.910400,488.420044 
z"/>
</svg>