<svg version="1.1" id="Layer_1" xmlns="http://www.w3.org/2000/svg" xmlns:xlink="http://www.w3.org/1999/xlink" x="0px" y="0px"
	 width="100%" viewBox="0 0 1440 1440" enable-background="new 0 0 1440 1440" xml:space="preserve">
<path fill="#000000" opacity="1.000000" stroke="none" 
	d="
M1335.000000,1441.000000 
	C890.000061,1441.000000 445.500153,1441.000000 1.000179,1441.000000 
	C1.000119,961.000183 1.000119,481.000336 1.000060,1.000372 
	C480.999756,1.000248 960.999512,1.000248 1440.999512,1.000124 
	C1440.999634,480.999664 1440.999634,960.999329 1440.999756,1440.999512 
	C1405.833374,1441.000000 1370.666626,1441.000000 1335.000000,1441.000000 
M646.499573,697.000000 
	C629.738281,697.000000 612.977051,697.000000 596.351257,697.000000 
	C596.351257,692.625000 596.351257,688.894287 596.351257,684.708252 
	C625.765625,684.708252 654.830078,684.708252 683.766602,684.708252 
	C683.766602,674.293518 683.766602,664.347656 683.766602,654.262146 
	C642.138306,654.262146 600.743835,654.262146 559.291077,654.262146 
	C559.291077,692.253052 559.291077,729.981079 559.291077,767.680725 
	C600.977600,767.680725 642.372314,767.680725 683.650391,767.680725 
	C683.650391,757.293152 683.650391,747.228088 683.650391,736.711426 
	C654.234741,736.711426 625.167053,736.711426 596.230042,736.711426 
	C596.230042,732.630615 596.230042,729.013428 596.230042,724.943726 
	C619.522095,724.943726 642.589172,724.943726 665.708191,724.943726 
	C665.708191,715.411987 665.708191,706.348694 665.708191,697.000000 
	C659.446655,697.000000 653.472961,697.000000 646.499573,697.000000 
M772.954773,727.458801 
	C796.007324,741.833313 819.057007,756.212585 842.116516,770.575928 
	C844.773315,772.230774 847.485596,773.796448 850.652344,775.690735 
	C850.652344,734.567383 850.652344,694.374878 850.652344,654.377563 
	C837.905334,654.377563 825.507080,654.377563 812.676758,654.377563 
	C812.676758,672.783997 812.676758,690.814819 812.676758,709.264832 
	C778.649048,688.217346 745.134644,667.487427 711.256958,646.532837 
	C711.256958,687.463562 711.256958,727.552124 711.256958,767.712402 
	C723.578491,767.712402 735.641113,767.712402 748.118958,767.712402 
	C748.118958,749.371338 748.118958,731.313599 748.118958,712.560669 
	C756.596741,717.634583 764.461487,722.341736 772.954773,727.458801 
M1142.944946,685.550415 
	C1136.472778,694.027039 1130.058838,702.548950 1123.515381,710.970276 
	C1112.329956,725.365540 1101.063477,739.697693 1089.580811,754.376282 
	C1099.052368,761.351440 1108.273560,768.142273 1117.744995,775.117371 
	C1122.601929,768.537415 1127.337891,762.153564 1132.035034,755.741272 
	C1133.755981,753.391907 1135.577026,751.888306 1138.916260,751.911194 
	C1163.072632,752.076416 1187.230957,751.934570 1211.386963,752.127930 
	C1213.257568,752.142883 1215.662598,753.530640 1216.881836,755.038391 
	C1222.169434,761.577026 1227.109131,768.397034 1232.145630,775.075378 
	C1241.694702,768.005554 1250.782837,761.277100 1260.107422,754.373535 
	C1231.762573,717.997437 1203.532349,681.768555 1174.966309,645.108765 
	C1171.872925,648.970093 1169.402588,652.008301 1166.980713,655.084839 
	C1159.130371,665.057617 1151.297729,675.044495 1142.944946,685.550415 
M504.624298,737.071838 
	C501.460449,737.724609 498.321228,738.552429 495.128723,739.001221 
	C477.265015,741.512329 460.052063,740.642517 445.035767,728.928467 
	C433.760315,720.132568 432.660889,704.263550 443.633606,694.051208 
	C451.975555,686.287292 462.696136,683.010742 473.800476,682.124207 
	C489.649231,680.858948 505.118164,682.884338 519.601868,690.127747 
	C520.464844,690.559448 522.558044,690.307739 522.923706,689.690125 
	C528.051575,681.028870 532.978455,672.248596 537.878906,663.629700 
	C524.847229,655.566284 510.823700,651.183228 496.276031,650.312927 
	C483.357056,649.540100 470.156433,650.413818 457.309448,652.205261 
	C437.206543,655.008545 419.609497,663.501099 407.260406,680.348328 
	C395.559113,696.311890 393.614166,713.829529 401.544647,731.934753 
	C409.294983,749.628662 424.023621,759.683838 441.612122,765.969116 
	C460.859039,772.846985 480.721558,773.303345 500.787201,771.010559 
	C514.023071,769.498108 526.361450,765.410889 537.914429,758.414124 
	C532.629150,749.091431 527.489563,740.025757 522.472290,731.175720 
	C516.753357,733.134644 511.107849,735.068420 504.624298,737.071838 
M1015.999878,674.473999 
	C1015.999878,667.714783 1015.999878,660.955627 1015.999878,654.340759 
	C967.625305,654.340759 919.908813,654.340759 872.367676,654.340759 
	C872.367676,664.748169 872.367676,674.811707 872.367676,685.146484 
	C890.009766,685.146484 907.285522,685.146484 925.013733,685.146484 
	C925.013733,712.817932 925.013733,740.210083 925.013733,767.738037 
	C937.865051,767.738037 950.258057,767.738037 963.106689,767.738037 
	C963.106689,740.087891 963.106689,712.695801 963.106689,684.849243 
	C980.955627,684.849243 998.352173,684.849243 1015.999878,684.849243 
	C1015.999878,681.414734 1015.999878,678.438477 1015.999878,674.473999 
M262.500000,768.000000 
	C280.925323,768.000000 299.350616,768.000000 317.648438,768.000000 
	C317.648438,757.289368 317.648438,747.224304 317.648438,736.704163 
	C289.233704,736.704163 261.168640,736.704163 232.822525,736.704163 
	C232.822525,708.960571 232.822525,681.682190 232.822525,654.264099 
	C220.469223,654.264099 208.406708,654.264099 196.292847,654.264099 
	C196.292847,692.256836 196.292847,729.984741 196.292847,768.000000 
	C218.222885,768.000000 239.861450,768.000000 262.500000,768.000000 
M361.491272,768.000000 
	C365.917419,768.000000 370.343597,768.000000 374.702087,768.000000 
	C374.702087,729.673096 374.702087,691.974548 374.702087,654.314209 
	C362.347534,654.314209 350.293579,654.314209 338.298523,654.314209 
	C338.298523,692.327698 338.298523,730.026184 338.298523,768.000000 
	C345.894379,768.000000 353.194550,768.000000 361.491272,768.000000 
M1037.000000,676.500000 
	C1037.000000,706.899292 1037.000000,737.298523 1037.000000,767.699768 
	C1049.624390,767.699768 1061.677979,767.699768 1073.716064,767.699768 
	C1073.716064,729.700745 1073.716064,692.002686 1073.716064,654.300049 
	C1061.376343,654.300049 1049.322754,654.300049 1037.000000,654.300049 
	C1037.000000,661.564819 1037.000000,668.532471 1037.000000,676.500000 
z"/>
<path fill="#83B0F2" opacity="1.000000" stroke="none" 
	d="
M646.999390,697.000000 
	C653.472961,697.000000 659.446655,697.000000 665.708191,697.000000 
	C665.708191,706.348694 665.708191,715.411987 665.708191,724.943726 
	C642.589172,724.943726 619.522095,724.943726 596.230042,724.943726 
	C596.230042,729.013428 596.230042,732.630615 596.230042,736.711426 
	C625.167053,736.711426 654.234741,736.711426 683.650391,736.711426 
	C683.650391,747.228088 683.650391,757.293152 683.650391,767.680725 
	C642.372314,767.680725 600.977600,767.680725 559.291077,767.680725 
	C559.291077,729.981079 559.291077,692.253052 559.291077,654.262146 
	C600.743835,654.262146 642.138306,654.262146 683.766602,654.262146 
	C683.766602,664.347656 683.766602,674.293518 683.766602,684.708252 
	C654.830078,684.708252 625.765625,684.708252 596.351257,684.708252 
	C596.351257,688.894287 596.351257,692.625000 596.351257,697.000000 
	C612.977051,697.000000 629.738281,697.000000 646.999390,697.000000 
z"/>
<path fill="#83B0F2" opacity="1.000000" stroke="none" 
	d="
M772.640503,727.253784 
	C764.461487,722.341736 756.596741,717.634583 748.118958,712.560669 
	C748.118958,731.313599 748.118958,749.371338 748.118958,767.712402 
	C735.641113,767.712402 723.578491,767.712402 711.256958,767.712402 
	C711.256958,727.552124 711.256958,687.463562 711.256958,646.532837 
	C745.134644,667.487427 778.649048,688.217346 812.676758,709.264832 
	C812.676758,690.814819 812.676758,672.783997 812.676758,654.377563 
	C825.507080,654.377563 837.905334,654.377563 850.652344,654.377563 
	C850.652344,694.374878 850.652344,734.567383 850.652344,775.690735 
	C847.485596,773.796448 844.773315,772.230774 842.116516,770.575928 
	C819.057007,756.212585 796.007324,741.833313 772.640503,727.253784 
z"/>
<path fill="#83B0F2" opacity="1.000000" stroke="none" 
	d="
M1143.201660,685.288208 
	C1151.297729,675.044495 1159.130371,665.057617 1166.980713,655.084839 
	C1169.402588,652.008301 1171.872925,648.970093 1174.966309,645.108765 
	C1203.532349,681.768555 1231.762573,717.997437 1260.107422,754.373535 
	C1250.782837,761.277100 1241.694702,768.005554 1232.145630,775.075378 
	C1227.109131,768.397034 1222.169434,761.577026 1216.881836,755.038391 
	C1215.662598,753.530640 1213.257568,752.142883 1211.386963,752.127930 
	C1187.230957,751.934570 1163.072632,752.076416 1138.916260,751.911194 
	C1135.577026,751.888306 1133.755981,753.391907 1132.035034,755.741272 
	C1127.337891,762.153564 1122.601929,768.537415 1117.744995,775.117371 
	C1108.273560,768.142273 1099.052368,761.351440 1089.580811,754.376282 
	C1101.063477,739.697693 1112.329956,725.365540 1123.515381,710.970276 
	C1130.058838,702.548950 1136.472778,694.027039 1143.201660,685.288208 
M1159.977539,718.536255 
	C1159.123047,719.855652 1158.268433,721.174988 1157.383423,722.541321 
	C1169.032104,722.541321 1180.449219,722.541321 1192.445068,722.541321 
	C1186.472290,714.613098 1180.935181,707.263306 1174.971436,699.346924 
	C1169.961548,705.802124 1165.224854,711.905212 1159.977539,718.536255 
z"/>
<path fill="#83B0F2" opacity="1.000000" stroke="none" 
	d="
M505.043304,737.036987 
	C511.107849,735.068420 516.753357,733.134644 522.472290,731.175720 
	C527.489563,740.025757 532.629150,749.091431 537.914429,758.414124 
	C526.361450,765.410889 514.023071,769.498108 500.787201,771.010559 
	C480.721558,773.303345 460.859039,772.846985 441.612122,765.969116 
	C424.023621,759.683838 409.294983,749.628662 401.544647,731.934753 
	C393.614166,713.829529 395.559113,696.311890 407.260406,680.348328 
	C419.609497,663.501099 437.206543,655.008545 457.309448,652.205261 
	C470.156433,650.413818 483.357056,649.540100 496.276031,650.312927 
	C510.823700,651.183228 524.847229,655.566284 537.878906,663.629700 
	C532.978455,672.248596 528.051575,681.028870 522.923706,689.690125 
	C522.558044,690.307739 520.464844,690.559448 519.601868,690.127747 
	C505.118164,682.884338 489.649231,680.858948 473.800476,682.124207 
	C462.696136,683.010742 451.975555,686.287292 443.633606,694.051208 
	C432.660889,704.263550 433.760315,720.132568 445.035767,728.928467 
	C460.052063,740.642517 477.265015,741.512329 495.128723,739.001221 
	C498.321228,738.552429 501.460449,737.724609 505.043304,737.036987 
z"/>
<path fill="#83B0F2" opacity="1.000000" stroke="none" 
	d="
M1015.999878,674.968079 
	C1015.999878,678.438477 1015.999878,681.414734 1015.999878,684.849243 
	C998.352173,684.849243 980.955627,684.849243 963.106689,684.849243 
	C963.106689,712.695801 963.106689,740.087891 963.106689,767.738037 
	C950.258057,767.738037 937.865051,767.738037 925.013733,767.738037 
	C925.013733,740.210083 925.013733,712.817932 925.013733,685.146484 
	C907.285522,685.146484 890.009766,685.146484 872.367676,685.146484 
	C872.367676,674.811707 872.367676,664.748169 872.367676,654.340759 
	C919.908813,654.340759 967.625305,654.340759 1015.999878,654.340759 
	C1015.999878,660.955627 1015.999878,667.714783 1015.999878,674.968079 
z"/>
<path fill="#83B0F2" opacity="1.000000" stroke="none" 
	d="
M262.000000,768.000000 
	C239.861450,768.000000 218.222885,768.000000 196.292847,768.000000 
	C196.292847,729.984741 196.292847,692.256836 196.292847,654.264099 
	C208.406708,654.264099 220.469223,654.264099 232.822525,654.264099 
	C232.822525,681.682190 232.822525,708.960571 232.822525,736.704163 
	C261.168640,736.704163 289.233704,736.704163 317.648438,736.704163 
	C317.648438,747.224304 317.648438,757.289368 317.648438,768.000000 
	C299.350616,768.000000 280.925323,768.000000 262.000000,768.000000 
z"/>
<path fill="#83B0F2" opacity="1.000000" stroke="none" 
	d="
M360.993011,768.000000 
	C353.194550,768.000000 345.894379,768.000000 338.298523,768.000000 
	C338.298523,730.026184 338.298523,692.327698 338.298523,654.314209 
	C350.293579,654.314209 362.347534,654.314209 374.702087,654.314209 
	C374.702087,691.974548 374.702087,729.673096 374.702087,768.000000 
	C370.343597,768.000000 365.917419,768.000000 360.993011,768.000000 
z"/>
<path fill="#83B0F2" opacity="1.000000" stroke="none" 
	d="
M1037.000000,676.000061 
	C1037.000000,668.532471 1037.000000,661.564819 1037.000000,654.300049 
	C1049.322754,654.300049 1061.376343,654.300049 1073.716064,654.300049 
	C1073.716064,692.002686 1073.716064,729.700745 1073.716064,767.699768 
	C1061.677979,767.699768 1049.624390,767.699768 1037.000000,767.699768 
	C1037.000000,737.298523 1037.000000,706.899292 1037.000000,676.000061 
z"/>
<path fill="#000000" opacity="1.000000" stroke="none" 
	d="
M1160.232910,718.272278 
	C1165.224854,711.905212 1169.961548,705.802124 1174.971436,699.346924 
	C1180.935181,707.263306 1186.472290,714.613098 1192.445068,722.541321 
	C1180.449219,722.541321 1169.032104,722.541321 1157.383423,722.541321 
	C1158.268433,721.174988 1159.123047,719.855652 1160.232910,718.272278 
z"/>
</svg>